<?xml version="1.0" encoding="UTF-8" standalone="no"?>
<svg
   xmlns:dc="http://purl.org/dc/elements/1.1/"
   xmlns:cc="http://creativecommons.org/ns#"
   xmlns:rdf="http://www.w3.org/1999/02/22-rdf-syntax-ns#"
   xmlns:svg="http://www.w3.org/2000/svg"
   xmlns="http://www.w3.org/2000/svg"
   xmlns:sodipodi="http://sodipodi.sourceforge.net/DTD/sodipodi-0.dtd"
   xmlns:inkscape="http://www.inkscape.org/namespaces/inkscape"
   viewBox="0 0 56.749608 56.749608"
   x="0in"
   y="0in"
   gorn="0"
   height="20.02mm"
   version="1.2"
   width="20.02mm"
   id="svg13284"
   sodipodi:docname="amb8833_breakout_breadboard.svg"
   inkscape:version="1.0.2 (e86c870879, 2021-01-15, custom)">
  <sodipodi:namedview
     pagecolor="#ffffff"
     bordercolor="#666666"
     borderopacity="1"
     objecttolerance="10"
     gridtolerance="10"
     guidetolerance="10"
     inkscape:pageopacity="0"
     inkscape:pageshadow="2"
     inkscape:window-width="1449"
     inkscape:window-height="1041"
     id="namedview668"
     showgrid="false"
     inkscape:zoom="5.6568543"
     inkscape:cx="40.379311"
     inkscape:cy="45.376139"
     inkscape:window-x="455"
     inkscape:window-y="0"
     inkscape:window-maximized="0"
     inkscape:current-layer="svg13284"
     units="mm"
     inkscape:document-units="mm"
     inkscape:pagecheckerboard="true"
     fit-margin-top="0"
     fit-margin-left="0"
     fit-margin-right="0"
     fit-margin-bottom="0"
     inkscape:document-rotation="0" />
  <desc
     id="desc2">
    <referenceFile>Adafruit AMG8833 8x8 GRID EYE_breadboard.svg</referenceFile>
  </desc>
  <metadata
     id="metadata13940" />
  <defs
     id="defs13938" />
  <desc
     id="desc13286">Fritzing breadboard generated by brd2svg</desc>
  <path
     style="fill:#0099cc;fill-opacity:1;stroke:none;stroke-width:0.95999998;stroke-linejoin:miter;stroke-miterlimit:4;stroke-dasharray:none;stroke-opacity:1"
     d="M 1.890625 0 C 0.84369582 0 0 0.84369582 0 1.890625 L 0 73.777344 C 0 74.824273 0.84369582 75.666016 1.890625 75.666016 L 73.777344 75.666016 C 74.824273 75.666016 75.666016 74.824273 75.666016 73.777344 L 75.666016 1.890625 C 75.666016 0.84369582 74.824273 0 73.777344 0 L 1.890625 0 z M 9.0332031 5.2539062 A 3.7795274 3.7795274 0 0 1 12.8125 9.0332031 A 3.7795274 3.7795274 0 0 1 9.0332031 12.8125 A 3.7795274 3.7795274 0 0 1 5.2539062 9.0332031 A 3.7795274 3.7795274 0 0 1 9.0332031 5.2539062 z M 66.632812 5.2539062 A 3.7795274 3.7795274 0 0 1 70.412109 9.0332031 A 3.7795274 3.7795274 0 0 1 66.632812 12.8125 A 3.7795274 3.7795274 0 0 1 62.853516 9.0332031 A 3.7795274 3.7795274 0 0 1 66.632812 5.2539062 z M 71.433594 19.785156 A 2.3620968 2.3620968 0 0 1 73.794922 22.148438 A 2.3620968 2.3620968 0 0 1 71.433594 24.509766 A 2.3620968 2.3620968 0 0 1 69.070312 22.148438 A 2.3620968 2.3620968 0 0 1 71.433594 19.785156 z M 71.433594 29.386719 A 2.3620968 2.3620968 0 0 1 73.794922 31.748047 A 2.3620968 2.3620968 0 0 1 71.433594 34.109375 A 2.3620968 2.3620968 0 0 1 69.070312 31.748047 A 2.3620968 2.3620968 0 0 1 71.433594 29.386719 z M 71.433594 38.986328 A 2.3620968 2.3620968 0 0 1 73.794922 41.347656 A 2.3620968 2.3620968 0 0 1 71.433594 43.710938 A 2.3620968 2.3620968 0 0 1 69.070312 41.347656 A 2.3620968 2.3620968 0 0 1 71.433594 38.986328 z M 71.433594 48.585938 A 2.3620968 2.3620968 0 0 1 73.794922 50.947266 A 2.3620968 2.3620968 0 0 1 71.433594 53.310547 A 2.3620968 2.3620968 0 0 1 69.070312 50.947266 A 2.3620968 2.3620968 0 0 1 71.433594 48.585938 z M 71.433594 58.185547 A 2.3620968 2.3620968 0 0 1 73.794922 60.548828 A 2.3620968 2.3620968 0 0 1 71.433594 62.910156 A 2.3620968 2.3620968 0 0 1 69.070312 60.548828 A 2.3620968 2.3620968 0 0 1 71.433594 58.185547 z "
     id="rect1677"
     transform="scale(0.74999999)" />
  <g
     gorn="0.91.0.0"
     id="amg8833"
     transform="matrix(-1,0,0,1,37.47272,16.579248)">
    <metadata
       id="metadata15">
      <rdf:RDF>
        <cc:Work
           rdf:about="">
          <dc:format>image/svg+xml</dc:format>
          <dc:type
             rdf:resource="http://purl.org/dc/dcmitype/StillImage" />
          <dc:title />
        </cc:Work>
      </rdf:RDF>
    </metadata>
    <defs
       id="defs13" />
    <rect
       x="2.289978e-05"
       y="-33.220753"
       gorn="0.91.0.0.2.0.0.0.0.0.0"
       ry="0.32822478"
       style="fill:#cccccc;fill-opacity:1;stroke:none;stroke-width:0.120304;stroke-miterlimit:4;stroke-dasharray:none;stroke-dashoffset:17.8882;stroke-opacity:1"
       height="33.22073"
       width="23.591064"
       id="rect13208"
       rx="0.32108986"
       transform="rotate(90)" />
    <rect
       x="3.6172698"
       y="-29.752892"
       gorn="0.91.0.0.2.0.0.0.1.0.0"
       ry="3.8006301"
       style="fill:#999999;fill-opacity:1;stroke:none;stroke-width:0.120304;stroke-miterlimit:4;stroke-dasharray:none;stroke-dashoffset:17.8882;stroke-opacity:1"
       height="25.770834"
       width="16.141193"
       id="rect13206"
       rx="3.0099823"
       transform="rotate(90)" />
    <rect
       x="7.8818097"
       y="-26.046926"
       gorn="0.91.0.0.2.0.0.0.2.0.0"
       ry="0.66511142"
       style="fill:#2d1650;fill-opacity:1;stroke:none;stroke-width:0.120304;stroke-miterlimit:4;stroke-dasharray:none;stroke-dashoffset:17.8882;stroke-opacity:1"
       height="7.5050015"
       width="7.9896426"
       id="rect13204"
       rx="0.70232725"
       transform="rotate(90)" />
  </g>
  <g
     transform="rotate(180,48.895034,32.832092)"
     id="g187">
    <rect
       x="57.815399"
       y="16.594"
       gorn="0.6.0.0.0"
       height="4.2519698"
       style="fill:#9a916c;stroke:none;stroke-width:0"
       width="3.5149601"
       id="rect13642"
       inkscape:label="rect13642" />
    <rect
       x="63.485188"
       y="16.594"
       gorn="0.7.0.0.0"
       height="4.2519698"
       style="fill:#9a916c;stroke:none;stroke-width:0"
       width="3.5149601"
       id="rect13645"
       inkscape:label="rect13645" />
  </g>
  <g
     transform="rotate(180,43.509034,32.832092)"
     id="g193" />
  <g
     transform="rotate(180,10.676968,44.675482)"
     id="g223">
    <g
       id="g221">
      <g
         gorn="0.12.0.0"
         id="g13660">
        <rect
           x="7.7754202"
           y="43.234001"
           gorn="0.12.0.0.0"
           height="4.2519698"
           style="fill:#9a916c;stroke:none;stroke-width:0"
           width="3.5149601"
           id="connector6pin" />
      </g>
    </g>
  </g>
  <g
     transform="rotate(180,5.2911578,44.675482)"
     id="g229">
    <g
       id="g227">
      <g
         gorn="0.13.0.0"
         id="g13663">
        <rect
           x="2.3896101"
           y="43.234001"
           gorn="0.13.0.0.0"
           height="4.2519698"
           style="fill:#9a916c;stroke:none;stroke-width:0"
           width="3.5149601"
           id="connector7pin" />
      </g>
    </g>
  </g>
  <g
     transform="rotate(90,3.4912977,42.446311)"
     id="g235">
    <g
       id="g233">
      <g
         gorn="0.14.0.0"
         id="g13666">
        <rect
           x="3.64252"
           y="18.5811"
           gorn="0.14.0.0.0"
           height="4.2519698"
           style="fill:#9a916c;stroke:none;stroke-width:0"
           width="3.5149601"
           id="connector8pin" />
      </g>
    </g>
  </g>
  <g
     transform="rotate(90,3.4912977,47.832111)"
     id="g241">
    <g
       id="g239">
      <g
         gorn="0.15.0.0"
         id="g13669">
        <rect
           x="3.64252"
           y="23.9669"
           gorn="0.15.0.0.0"
           height="4.2519698"
           style="fill:#9a916c;stroke:none;stroke-width:0"
           width="3.5149601"
           id="connector9pin" />
      </g>
    </g>
  </g>
  <circle
     gorn="0.20"
     connectorname="VIN"
     style="fill:none;stroke:#9a916c;stroke-width:0.99228793"
     cx="53.574802"
     id="connector5pin"
     cy="16.611027"
     r="1.7715726"
     inkscape:label="connector5pin" />
  <circle
     gorn="0.21"
     connectorname="3.3V"
     style="fill:none;stroke:#9a916c;stroke-width:0.99228793"
     cx="53.574802"
     id="connector4pin"
     cy="23.811024"
     r="1.7715726"
     inkscape:label="connector4pin" />
  <circle
     gorn="0.22"
     connectorname="GND"
     style="fill:none;stroke:#9a916c;stroke-width:0.99228793"
     cx="53.574802"
     id="connector3pin"
     cy="31.011024"
     r="1.7715726"
     inkscape:label="connector3pin" />
  <circle
     gorn="0.23"
     connectorname="SDA"
     style="fill:none;stroke:#9a916c;stroke-width:0.99228793"
     cx="53.574802"
     id="connector2pin"
     cy="38.211021"
     r="1.7715726"
     inkscape:label="connector2pin" />
  <circle
     gorn="0.24"
     connectorname="SCL"
     style="fill:none;stroke:#9a916c;stroke-width:0.99228793"
     cx="53.574802"
     id="connector1pin"
     cy="45.411022"
     r="1.7715726"
     inkscape:label="connector1pin" />
  <g
     transform="rotate(180,14.760998,51.189041)"
     id="g305">
    <g
       id="g303">
      <g
         gorn="0.39.0.0"
         id="g13709">
        <rect
           x="21.469601"
           y="50.433998"
           gorn="0.39.0.0.0"
           height="4.2519698"
           style="fill:#9a916c;stroke:none;stroke-width:0"
           width="3.5149601"
           id="connector33pin" />
      </g>
    </g>
  </g>
  <g
     transform="rotate(-90,41.444434,76.412021)"
     id="g331">
    <g
       id="g329">
      <g
         gorn="0.50.0.0"
         id="g13726">
        <rect
           x="65.979202"
           y="51.250401"
           gorn="0.50.0.0.0"
           height="4.2519698"
           style="fill:#9a916c;stroke:none;stroke-width:0"
           width="3.4015801"
           id="connector44pin" />
      </g>
    </g>
  </g>
  <g
     transform="rotate(-90,41.444834,70.459621)"
     id="g337">
    <g
       id="g335">
      <g
         gorn="0.51.0.0"
         id="g13729">
        <rect
           x="65.979202"
           y="45.2976"
           gorn="0.51.0.0.0"
           height="4.2519698"
           style="fill:#9a916c;stroke:none;stroke-width:0"
           width="3.4015801"
           id="connector45pin" />
      </g>
    </g>
  </g>
  <g
     id="g2625"
     transform="rotate(90,32.510959,14.008735)">
    <g
       id="g407"
       transform="rotate(-90,30.239985,27.354315)">
      <g
         id="g405">
        <g
           id="g13766"
           gorn="0.66.0.0">
          <rect
             id="connector60pin"
             width="7.37006"
             style="fill:#9a916c;stroke:none;stroke-width:0"
             height="1.98426"
             gorn="0.66.0.0.0"
             y="26.3622"
             x="26.555" />
        </g>
      </g>
    </g>
    <g
       id="g413"
       transform="rotate(-90,26.639984,27.354316)">
      <g
         id="g411">
        <g
           id="g13769"
           gorn="0.67.0.0">
          <rect
             id="connector61pin"
             width="7.37006"
             style="fill:#9a916c;stroke:none;stroke-width:0"
             height="1.98426"
             gorn="0.67.0.0.0"
             y="26.3622"
             x="22.955" />
        </g>
      </g>
    </g>
    <g
       id="g419"
       transform="rotate(-90,23.039985,27.354315)">
      <g
         id="g417">
        <g
           id="g13772"
           gorn="0.68.0.0">
          <rect
             id="connector62pin"
             width="7.37006"
             style="fill:#9a916c;stroke:none;stroke-width:0"
             height="1.98426"
             gorn="0.68.0.0.0"
             y="26.3622"
             x="19.355" />
        </g>
      </g>
    </g>
  </g>
  <g
     transform="translate(32.689568,45.172684)"
     id="g467">
    <g
       id="g465">
      <g
         gorn="0.75.0.0"
         id="0805-cap">
        <g
           transform="rotate(180,2.8345,1.7715)"
           id="g462">
          <g
             id="g460">
            <g
               gorn="0.75.0.0.0.0.0"
               id="g13794">
              <path
                 gorn="0.75.0.0.0.0.0.0"
                 style="fill:#dcdcdc"
                 d="M 5.386,3.543 H 0.283 C 0.127,3.543 0,3.416 0,3.26 V 0.283 C 0,0.127 0.127,0 0.283,0 H 5.385 C 5.542,0 5.668,0.127 5.668,0.283 V 3.26 C 5.669,3.416 5.542,3.543 5.386,3.543 Z"
                 id="path13796"
                 inkscape:connector-curvature="0" />
              <rect
                 x="1.063"
                 y="0"
                 gorn="0.75.0.0.0.0.0.1"
                 style="fill:#6e554b"
                 height="3.543"
                 width="3.543"
                 id="rect13798" />
            </g>
          </g>
        </g>
      </g>
    </g>
  </g>
  <g
     transform="translate(6.2936356,42.219464)"
     id="g503">
    <g
       id="g501">
      <g
         gorn="0.78.0.0"
         id="g13816">
        <g
           transform="rotate(180,2.8345,1.7715)"
           id="g498">
          <g
             id="g496">
            <g
               gorn="0.78.0.0.0.0.0"
               id="g13818">
              <path
                 gorn="0.78.0.0.0.0.0.0"
                 style="fill:#dcdcdc"
                 d="M 5.386,3.543 H 0.283 C 0.127,3.543 0,3.416 0,3.26 V 0.283 C 0,0.127 0.127,0 0.283,0 H 5.385 C 5.542,0 5.668,0.127 5.668,0.283 V 3.26 C 5.669,3.416 5.542,3.543 5.386,3.543 Z"
                 id="path13820"
                 inkscape:connector-curvature="0" />
              <rect
                 x="1.063"
                 y="0"
                 gorn="0.78.0.0.0.0.0.1"
                 style="fill:#6e554b"
                 height="3.543"
                 width="3.543"
                 id="rect13822" />
            </g>
          </g>
        </g>
      </g>
    </g>
  </g>
  <g
     transform="rotate(180,20.146798,51.189041)"
     id="g299">
    <g
       id="g297">
      <g
         gorn="0.38.0.0"
         id="g13706">
        <rect
           x="26.8554"
           y="50.433998"
           gorn="0.38.0.0.0"
           height="4.2519698"
           style="fill:#9a916c;stroke:none;stroke-width:0"
           width="3.5149601"
           id="connector32pin" />
      </g>
    </g>
  </g>
  <g
     transform="translate(22.396008,45.276413)"
     id="g515">
    <g
       id="g513">
      <g
         gorn="0.79.0.0"
         id="g13824">
        <g
           transform="rotate(90,2.8345,1.7715)"
           id="g510">
          <g
             id="g508">
            <g
               gorn="0.79.0.0.0.0.0"
               id="g13826">
              <path
                 gorn="0.79.0.0.0.0.0.0"
                 style="fill:#dcdcdc"
                 d="M 5.386,3.543 H 0.283 C 0.127,3.543 0,3.416 0,3.26 V 0.283 C 0,0.127 0.127,0 0.283,0 H 5.385 C 5.542,0 5.668,0.127 5.668,0.283 V 3.26 C 5.669,3.416 5.542,3.543 5.386,3.543 Z"
                 id="path13828"
                 inkscape:connector-curvature="0" />
              <rect
                 x="1.063"
                 y="0"
                 gorn="0.79.0.0.0.0.0.1"
                 style="fill:#6e554b"
                 height="3.543"
                 width="3.543"
                 id="rect13830" />
            </g>
          </g>
        </g>
      </g>
    </g>
  </g>
  <g
     transform="translate(6.1532966,48.046583)"
     id="g564">
    <g
       id="g562">
      <g
         gorn="0.83.0.0"
         id="0805-res">
        <g
           transform="rotate(180,2.8345,1.7715)"
           id="g559">
          <g
             id="g557">
            <g
               gorn="0.83.0.0.0.0.0"
               id="g13866">
              <path
                 gorn="0.83.0.0.0.0.0.0"
                 style="fill:#dcdcdc"
                 d="M 5.386,3.543 H 0.283 C 0.127,3.543 0,3.416 0,3.26 V 0.283 C 0,0.127 0.127,0 0.283,0 H 5.385 C 5.542,0 5.668,0.127 5.668,0.283 V 3.26 C 5.669,3.416 5.542,3.543 5.386,3.543 Z"
                 id="path13868"
                 inkscape:connector-curvature="0" />
              <rect
                 x="1.063"
                 y="0"
                 gorn="0.83.0.0.0.0.0.1"
                 style="fill:#333333"
                 height="3.543"
                 width="3.543"
                 id="rect13870" />
            </g>
          </g>
        </g>
      </g>
    </g>
  </g>
  <g
     transform="translate(15.574314,45.428955)"
     id="g616">
    <g
       id="g614">
      <g
         gorn="0.89.0.0"
         id="g13903">
        <g
           transform="rotate(-90,2.8345,1.7715)"
           id="g611">
          <g
             id="g609">
            <g
               gorn="0.89.0.0.0.0.0"
               id="g13905">
              <path
                 gorn="0.89.0.0.0.0.0.0"
                 style="fill:#dcdcdc"
                 d="M 5.386,3.543 H 0.283 C 0.127,3.543 0,3.416 0,3.26 V 0.283 C 0,0.127 0.127,0 0.283,0 H 5.385 C 5.542,0 5.668,0.127 5.668,0.283 V 3.26 C 5.669,3.416 5.542,3.543 5.386,3.543 Z"
                 id="path13907"
                 inkscape:connector-curvature="0" />
              <rect
                 x="1.063"
                 y="0"
                 gorn="0.89.0.0.0.0.0.1"
                 style="fill:#6e554b"
                 height="3.543"
                 width="3.543"
                 id="rect13909" />
            </g>
          </g>
        </g>
      </g>
    </g>
  </g>
  <text
     xml:space="preserve"
     style="font-style:normal;font-variant:normal;font-weight:500;font-stretch:normal;font-size:3px;line-height:1.25;font-family:OCRA;-inkscape-font-specification:'OCRA, Medium';font-variant-ligatures:normal;font-variant-caps:normal;font-variant-numeric:normal;font-feature-settings:normal;text-align:start;letter-spacing:0px;word-spacing:0px;writing-mode:lr-tb;text-anchor:start;fill:#ffffff;fill-opacity:1;stroke:none;stroke-width:0.75"
     x="11.26232"
     y="55.24646"
     id="text2634"><tspan
       sodipodi:role="line"
       id="tspan2632"
       x="11.26232"
       y="55.24646"
       style="fill:#ffffff;fill-opacity:1;stroke-width:0.75">AMG8833 breakout</tspan></text>
  <text
     xml:space="preserve"
     style="font-style:normal;font-variant:normal;font-weight:500;font-stretch:normal;font-size:3px;line-height:1.25;font-family:OCRA;-inkscape-font-specification:'OCRA, Medium';font-variant-ligatures:normal;font-variant-caps:normal;font-variant-numeric:normal;font-feature-settings:normal;text-align:end;letter-spacing:0px;word-spacing:0px;writing-mode:lr-tb;text-anchor:end;fill:#ffffff;fill-opacity:1;stroke:none;stroke-width:0.75"
     x="50.214619"
     y="46.519779"
     id="text2638"><tspan
       sodipodi:role="line"
       id="tspan2636"
       x="50.214619"
       y="46.519779"
       style="font-style:normal;font-variant:normal;font-weight:500;font-stretch:normal;font-size:3px;font-family:OCRA;-inkscape-font-specification:'OCRA, Medium';font-variant-ligatures:normal;font-variant-caps:normal;font-variant-numeric:normal;font-feature-settings:normal;text-align:end;writing-mode:lr-tb;text-anchor:end;fill:#ffffff;fill-opacity:1;stroke-width:0.75">3.3V</tspan></text>
  <text
     id="text2642"
     y="39.320808"
     x="50.214619"
     style="font-style:normal;font-variant:normal;font-weight:500;font-stretch:normal;font-size:3px;line-height:1.25;font-family:OCRA;-inkscape-font-specification:'OCRA, Medium';font-variant-ligatures:normal;font-variant-caps:normal;font-variant-numeric:normal;font-feature-settings:normal;text-align:end;letter-spacing:0px;word-spacing:0px;writing-mode:lr-tb;text-anchor:end;fill:#ffffff;fill-opacity:1;stroke:none;stroke-width:0.75"
     xml:space="preserve"><tspan
       sodipodi:role="line"
       id="tspan2664"
       x="50.214619"
       y="39.320808">GND</tspan></text>
  <text
     xml:space="preserve"
     style="font-style:normal;font-variant:normal;font-weight:500;font-stretch:normal;font-size:3px;line-height:1.25;font-family:OCRA;-inkscape-font-specification:'OCRA, Medium';font-variant-ligatures:normal;font-variant-caps:normal;font-variant-numeric:normal;font-feature-settings:normal;text-align:end;letter-spacing:0px;word-spacing:0px;writing-mode:lr-tb;text-anchor:end;fill:#ffffff;fill-opacity:1;stroke:none;stroke-width:0.75"
     x="50.286118"
     y="30.24581"
     id="text2646"><tspan
       sodipodi:role="line"
       id="tspan2660"
       x="50.286118"
       y="30.24581">IO4</tspan><tspan
       sodipodi:role="line"
       id="tspan2662"
       x="50.286118"
       y="33.995811">(INT)</tspan></text>
  <text
     id="text2650"
     y="24.919889"
     x="50.217617"
     style="font-style:normal;font-variant:normal;font-weight:500;font-stretch:normal;font-size:3px;line-height:1.25;font-family:OCRA;-inkscape-font-specification:'OCRA, Medium';font-variant-ligatures:normal;font-variant-caps:normal;font-variant-numeric:normal;font-feature-settings:normal;text-align:end;letter-spacing:0px;word-spacing:0px;writing-mode:lr-tb;text-anchor:end;fill:#ffffff;fill-opacity:1;stroke:none;stroke-width:0.75"
     xml:space="preserve"><tspan
       sodipodi:role="line"
       id="tspan2658"
       x="50.217617"
       y="24.919889">SDA</tspan></text>
  <text
     xml:space="preserve"
     style="font-style:normal;font-variant:normal;font-weight:500;font-stretch:normal;font-size:3px;line-height:1.25;font-family:OCRA;-inkscape-font-specification:'OCRA, Medium';font-variant-ligatures:normal;font-variant-caps:normal;font-variant-numeric:normal;font-feature-settings:normal;text-align:end;letter-spacing:0px;word-spacing:0px;writing-mode:lr-tb;text-anchor:end;fill:#ffffff;fill-opacity:1;stroke:none;stroke-width:0.75"
     x="50.217617"
     y="17.721027"
     id="text2654"><tspan
       sodipodi:role="line"
       id="tspan2656"
       x="50.217617"
       y="17.721027">SCL</tspan></text>
</svg>
